HIERARCHY
ROOT SpineBase
{
  OFFSET 0.000000 0.000000 0.000000
  CHANNELS 6 Xposition Yposition Zposition Zrotation Xrotation Yrotation
  JOINT SpineMid
  {
    OFFSET -0.000000 27.000186 0.000000
    CHANNELS 3 Zrotation Xrotation Yrotation
    JOINT SpineShoulder
    {
      OFFSET 0.248985 20.106402 -0.308244
      CHANNELS 3 Zrotation Xrotation Yrotation
      JOINT Neck
      {
        OFFSET 0.137703 6.655700 -0.360715
        CHANNELS 3 Zrotation Xrotation Yrotation
        JOINT Head
        {
          OFFSET 4.317766 13.295665 -0.016445
          CHANNELS 3 Zrotation Xrotation Yrotation
          End Site
          {
            OFFSET 0 0 0
          }
        }
      }
      JOINT ShoulderLeft
      {
        OFFSET -10.341845 -2.641764 -12.109729
        CHANNELS 3 Zrotation Xrotation Yrotation
        JOINT ElbowLeft
        {
          OFFSET 5.001386 -18.295204 -7.760002
          CHANNELS 3 Zrotation Xrotation Yrotation
          JOINT WristLeft
          {
            OFFSET 16.222724 -9.975014 -6.830440
            CHANNELS 3 Zrotation Xrotation Yrotation
            JOINT HandLeft
            {
              OFFSET 6.690174 -2.384455 -3.463233
              CHANNELS 3 Zrotation Xrotation Yrotation
              JOINT HandTipLeft
              {
                OFFSET 3.949726 -1.858740 -2.751267
                CHANNELS 3 Zrotation Xrotation Yrotation
                End Site
                {
                  OFFSET 0 0 0
                }
              }
              JOINT ThumbLeft
              {
                OFFSET 1.220324 -1.710570 -3.203505
                CHANNELS 3 Zrotation Xrotation Yrotation
                End Site
                {
                  OFFSET 0 0 0
                }
              }
            }
          }
        }
      }
      JOINT ShoulderRight
      {
        OFFSET 14.140581 -5.543547 8.733161
        CHANNELS 3 Zrotation Xrotation Yrotation
        JOINT ElbowRight
        {
          OFFSET 5.794060 -20.879489 -6.029864
          CHANNELS 3 Zrotation Xrotation Yrotation
          JOINT WristRight
          {
            OFFSET 5.299829 -13.867255 -14.554919
            CHANNELS 3 Zrotation Xrotation Yrotation
            JOINT HandRight
            {
              OFFSET -0.658751 0.859265 -9.628387
              CHANNELS 3 Zrotation Xrotation Yrotation
              JOINT HandTipRight
              {
                OFFSET -0.851229 -1.048469 -3.057871
                CHANNELS 3 Zrotation Xrotation Yrotation
                End Site
                {
                  OFFSET 0 0 0
                }
              }
              JOINT ThumbRight
              {
                OFFSET -1.432691 3.878529 -3.633030
                CHANNELS 3 Zrotation Xrotation Yrotation
                End Site
                {
                  OFFSET 0 0 0
                }
              }
            }
          }
        }
      }
    }
  }
  JOINT HipLeft
  {
    OFFSET -4.978273 1.709176 -7.066813
    CHANNELS 3 Zrotation Xrotation Yrotation
    JOINT KneeLeft
    {
      OFFSET -6.183039 -31.350907 -1.688978
      CHANNELS 3 Zrotation Xrotation Yrotation
      JOINT AnkleLeft
      {
        OFFSET -3.957686 -34.979746 6.118439
        CHANNELS 3 Zrotation Xrotation Yrotation
        JOINT FootLeft
        {
          OFFSET 0.583598 -8.501080 -4.107141
          CHANNELS 3 Zrotation Xrotation Yrotation
          End Site
          {
            OFFSET 0 0 0
          }
        }
      }
    }
  }
  JOINT HipRight
  {
    OFFSET 5.543357 0.060089 0.512689
    CHANNELS 3 Zrotation Xrotation Yrotation
    JOINT KneeRight
    {
      OFFSET -3.846200 -31.721942 3.131831
      CHANNELS 3 Zrotation Xrotation Yrotation
      JOINT AnkleRight
      {
        OFFSET -8.517524 -31.699520 1.108278
        CHANNELS 3 Zrotation Xrotation Yrotation
        JOINT FootRight
        {
          OFFSET 1.305922 -7.677807 -5.639109
          CHANNELS 3 Zrotation Xrotation Yrotation
          End Site
          {
            OFFSET 0 0 0
          }
        }
      }
    }
  }
}
MOTION
Frames: 9
Frame Time: 0.033333
-36.492554 86.717412 346.292957 0.000000 0.000000 -35.767976 -0.000000 0.000000 35.767976 -0.000000 0.000000 0.000000 -0.000000 0.000000 0.000000 0.000000 0.000000 0.000000 -0.000000 0.000000 0.000000 -0.000000 0.000000 0.000000 -0.000000 0.000000 0.000000 -0.000000 0.000000 0.000000 0.000000 0.000000 0.000000 0.000000 0.000000 0.000000 -0.000000 0.000000 0.000000 -0.000000 0.000000 0.000000 -0.000000 0.000000 0.000000 -0.000000 0.000000 0.000000 0.000000 0.000000 0.000000 0.000000 0.000000 0.000000 -0.000000 0.000000 35.767976 -0.000000 0.000000 0.000000 -0.000000 0.000000 0.000000 0.000000 0.000000 0.000000 -0.000000 0.000000 35.767976 -0.000000 0.000000 0.000000 -0.000000 0.000000 0.000000 0.000000 0.000000 0.000000
-36.867751 87.026305 346.247216 -0.455051 0.437884 -36.137441 0.625731 -0.085271 36.139645 -0.000000 0.000000 0.000000 -0.000000 0.000000 0.000000 0.000000 0.000000 0.000000 1.445895 0.566984 -0.462902 4.683227 0.366036 -2.053271 -1.473178 0.650488 0.453392 -1.088466 -6.279158 -12.519771 0.000000 0.000000 0.000000 0.000000 0.000000 0.000000 1.640761 1.097991 -0.183657 -0.159173 2.233443 -0.139790 -2.011243 -5.745077 -6.267962 3.357926 2.004560 -2.158081 0.000000 0.000000 0.000000 0.000000 0.000000 0.000000 1.520899 0.896658 36.010612 -1.704702 0.449606 -0.031367 11.082811 12.515718 -4.922115 0.000000 0.000000 0.000000 1.615316 0.010858 36.286206 -0.854590 0.508147 -0.142129 1.451656 -1.126311 -1.249845 0.000000 0.000000 0.000000
-37.187502 87.267793 346.142465 -0.819260 0.814317 -36.482780 1.142884 -0.167551 36.490273 -0.000000 0.000000 0.000000 0.647922 1.236829 -0.408622 0.000000 0.000000 0.000000 1.891649 0.705780 -0.616734 7.720087 0.397942 -3.698271 -2.186554 0.966651 0.202957 -3.117802 -11.120592 -20.324317 0.000000 0.000000 0.000000 0.000000 0.000000 0.000000 2.517546 1.407355 -0.364021 -0.068968 3.905621 -0.278681 -3.457038 -9.888904 -10.316809 6.000197 2.636035 -4.497477 0.000000 0.000000 0.000000 0.000000 0.000000 0.000000 2.788025 1.561459 36.261520 -3.116209 0.920208 -0.082259 21.159761 21.494495 -10.627421 0.000000 0.000000 0.000000 3.008960 -0.019929 36.770527 -2.103596 2.112381 -0.565989 3.248979 -3.239000 -1.948415 0.000000 0.000000 0.000000
-37.451809 87.441877 345.978702 -1.090318 1.127186 -36.806990 1.548278 -0.249077 36.821081 -0.000000 0.000000 0.000000 0.870874 1.929986 -0.642005 0.000000 0.000000 0.000000 1.440530 0.467339 -0.486640 9.319340 0.214147 -5.038947 -2.599712 0.782884 -0.604787 -5.057525 -14.109518 -24.631370 0.000000 0.000000 0.000000 0.000000 0.000000 0.000000 2.539412 0.863596 -0.508735 0.379982 5.150853 -0.393569 -4.352775 -12.836911 -12.934599 8.149013 2.181887 -6.313256 0.000000 0.000000 0.000000 0.000000 0.000000 0.000000 3.814536 2.005477 36.526167 -4.251003 1.404087 -0.144877 29.298804 27.059317 -15.764868 0.000000 0.000000 0.000000 4.179051 -0.098373 37.222930 -2.916567 2.908928 -0.748383 4.527957 -4.438978 -2.704029 0.000000 0.000000 0.000000
-37.660670 87.548556 345.755929 -1.266698 1.374951 -37.112680 1.839735 -0.331841 37.133208 -0.000000 0.000000 0.000000 1.026818 2.671977 -0.893166 0.000000 0.000000 0.000000 -0.000000 0.000000 0.000000 9.698099 -0.274601 -6.224482 -3.143949 -0.049734 -1.938961 -6.161476 -15.279822 -26.340679 0.000000 0.000000 0.000000 0.000000 0.000000 0.000000 1.668190 -0.545669 -0.623609 1.235354 6.013755 -0.490357 -4.713335 -14.950082 -14.488772 9.921398 0.944594 -7.413826 0.000000 0.000000 0.000000 0.000000 0.000000 0.000000 4.611266 2.235014 36.808966 -5.120703 1.896458 -0.214290 35.349659 30.277024 -19.750117 0.000000 0.000000 0.000000 5.124702 -0.229891 37.645272 -3.575614 3.536552 -0.870567 5.570327 -5.347437 -3.331530 0.000000 0.000000 0.000000
-37.814086 87.587831 345.474144 -1.347660 1.556628 -37.402030 2.016067 -0.417586 37.427686 -0.000000 0.000000 0.000000 1.116246 3.461885 -1.160618 0.000000 0.000000 0.000000 -2.007600 -1.127486 0.528365 8.327525 -0.586580 -7.059717 -4.292084 -1.655715 -3.886618 -5.836567 -14.610262 -25.839331 0.000000 0.000000 0.000000 0.000000 0.000000 0.000000 -0.073311 -2.770909 -0.755076 2.469210 6.426678 -0.598250 -4.527199 -16.688865 -15.099218 11.337054 -0.685186 -7.834240 0.000000 0.000000 0.000000 0.000000 0.000000 0.000000 5.187194 2.251663 37.113690 -5.732230 2.395708 -0.288066 39.561572 32.033001 -22.542013 0.000000 0.000000 0.000000 5.845911 -0.419370 38.039154 -4.083213 3.996568 -0.936415 6.373636 -5.957322 -3.841872 0.000000 0.000000 0.000000
-38.040058 87.546047 344.967815 -1.456885 1.829402 -37.726488 1.360039 -0.666711 37.733116 0.789404 -0.469523 0.021152 1.001165 4.364227 -1.459008 0.000000 0.000000 0.000000 -5.979324 -3.170745 1.545941 3.831487 -1.294861 -7.814946 -9.396861 -5.470932 -6.473111 -1.333886 -10.037475 -23.010559 0.000000 0.000000 0.000000 0.000000 0.000000 0.000000 -3.750142 -7.152873 -1.170291 4.859699 6.265772 -1.080388 -5.511666 -29.320741 -18.939710 14.475506 -0.042134 -6.474719 0.000000 0.000000 0.000000 0.000000 0.000000 0.000000 6.073226 1.830226 37.563589 -6.313788 3.531180 -0.439482 42.784886 32.791785 -24.457759 0.000000 0.000000 0.000000 6.651371 -0.765465 38.486760 -4.530515 4.315188 -0.937945 7.558888 -6.703609 -4.751437 0.000000 0.000000 0.000000
-38.119046 87.420414 344.492673 -1.371865 1.925617 -38.036138 1.467278 -0.904321 38.045785 0.773721 -0.308988 0.017775 0.938979 5.450343 -1.819666 0.000000 0.000000 0.000000 -10.671761 -5.429516 2.668058 -1.436496 -1.896909 -8.332298 -14.735625 -8.575067 -9.940574 4.542529 -4.753261 -19.497507 0.000000 0.000000 0.000000 0.000000 0.000000 0.000000 -7.267451 -10.845364 -1.683506 6.572810 5.070414 -1.409431 -2.850914 -37.240204 -14.533697 13.066488 2.744332 -9.016496 0.000000 0.000000 0.000000 0.000000 0.000000 0.000000 6.424544 1.259876 38.016189 -6.369230 4.247421 -0.534029 43.683713 32.658816 -24.953461 0.000000 0.000000 0.000000 7.075101 -1.148386 38.899525 -4.807854 4.522521 -0.903345 7.806295 -6.614326 -4.979710 0.000000 0.000000 0.000000
-38.055598 87.260376 344.080357 -1.120374 1.809817 -38.252535 2.000438 -0.727131 38.282927 -0.032364 -0.943882 0.017500 0.922143 7.345739 -2.167892 0.000000 0.000000 0.000000 -15.479280 -7.004818 3.860135 -7.787310 -2.285584 -8.080866 -15.099647 -8.530348 -13.166251 7.631209 -1.885015 -14.040613 0.000000 0.000000 0.000000 0.000000 0.000000 0.000000 -10.515947 -13.183557 -2.168034 7.620520 2.826210 -1.672349 7.570761 -45.050985 1.453005 7.057591 13.817912 -16.396612 0.000000 0.000000 0.000000 0.000000 0.000000 0.000000 6.101304 0.623032 38.360973 -5.842366 4.360687 -0.569931 43.502928 33.024305 -25.141374 0.000000 0.000000 0.000000 7.035468 -1.487228 39.175336 -4.832096 4.474333 -0.816832 7.451120 -5.905469 -4.845909 0.000000 0.000000 0.000000
